<svg width="11" height="11" viewBox="0 0 11 11" fill="none" xmlns="http://www.w3.org/2000/svg">
<path d="M6.48786 9.06603C5.87967 9.67422 5.07105 10.0092 4.21093 10.0092C3.35082 10.0092 2.54219 9.67422 1.93398 9.06603C1.32576 8.45784 0.9908 7.64922 0.9908 6.78911C0.9908 5.92896 1.32576 5.12033 1.93394 4.51215L5.25596 1.19013L4.55537 0.489532L1.23335 3.81155C0.438033 4.60687 0 5.66432 0 6.78911C0 7.91386 0.438033 8.97131 1.23335 9.76662C2.0287 10.562 3.08614 11 4.2109 11C5.33566 11 6.39314 10.562 7.18845 9.76662L10.5105 6.4446L9.80988 5.74401L6.48786 9.06603Z" fill="#ABACB1"/>
</svg>
