<svg width="11" height="11" viewBox="0 0 11 11" fill="none" xmlns="http://www.w3.org/2000/svg">
<path d="M9.76662 1.23338C8.9713 0.438033 7.91382 0 6.7891 0C5.66431 0 4.60686 0.438033 3.81155 1.23338L0.489525 4.5554L1.19012 5.256L4.51211 1.93398C5.12029 1.32579 5.92895 0.9908 6.7891 0.9908C7.64921 0.9908 8.45784 1.32579 9.06602 1.93398C9.67421 2.54216 10.0092 3.35079 10.0092 4.2109C10.0092 5.07105 9.67421 5.87967 9.06602 6.48786L5.744 9.80988L6.4446 10.5105L9.76662 7.18845C10.562 6.39314 11 5.33566 11 4.2109C11 3.08614 10.562 2.0287 9.76662 1.23338Z" fill="#ABACB1"/>
</svg>
